<svg width="145" height="32" viewBox="0 0 145 32" fill="none" xmlns="http://www.w3.org/2000/svg">
<rect x="0.5" width="144" height="32" rx="16" fill="#1463FF" fill-opacity="0.1"/>
<path d="M13.7493 22V10.3636H18.1129C19.0069 10.3636 19.7569 10.5303 20.3629 10.8636C20.9728 11.197 21.433 11.6553 21.7436 12.2386C22.058 12.8182 22.2152 13.4773 22.2152 14.2159C22.2152 14.9621 22.058 15.625 21.7436 16.2045C21.4292 16.7841 20.9652 17.2405 20.3516 17.5739C19.7379 17.9034 18.9822 18.0682 18.0845 18.0682H15.1925V16.3352H17.8004C18.3232 16.3352 18.7512 16.2443 19.0845 16.0625C19.4179 15.8807 19.6641 15.6307 19.8232 15.3125C19.986 14.9943 20.0675 14.6288 20.0675 14.2159C20.0675 13.803 19.986 13.4394 19.8232 13.125C19.6641 12.8106 19.416 12.5663 19.0788 12.392C18.7455 12.214 18.3156 12.125 17.7891 12.125H15.8572V22H13.7493ZM23.9553 22V13.2727H25.9496V14.7273H26.0405C26.1996 14.2235 26.4723 13.8352 26.8587 13.5625C27.2488 13.286 27.6939 13.1477 28.1939 13.1477C28.3075 13.1477 28.4344 13.1534 28.5746 13.1648C28.7185 13.1723 28.8378 13.1856 28.9325 13.2045V15.0966C28.8454 15.0663 28.7071 15.0398 28.5178 15.017C28.3321 14.9905 28.1522 14.9773 27.978 14.9773C27.603 14.9773 27.2659 15.0587 26.9666 15.2216C26.6712 15.3807 26.4382 15.6023 26.2678 15.8864C26.0973 16.1705 26.0121 16.4981 26.0121 16.8693V22H23.9553ZM30.299 22V13.2727H32.3558V22H30.299ZM31.3331 12.0341C31.0073 12.0341 30.727 11.9261 30.4922 11.7102C30.2573 11.4905 30.1399 11.2273 30.1399 10.9205C30.1399 10.6098 30.2573 10.3466 30.4922 10.1307C30.727 9.91098 31.0073 9.80114 31.3331 9.80114C31.6626 9.80114 31.9429 9.91098 32.174 10.1307C32.4089 10.3466 32.5263 10.6098 32.5263 10.9205C32.5263 11.2273 32.4089 11.4905 32.174 11.7102C31.9429 11.9261 31.6626 12.0341 31.3331 12.0341ZM38.2777 22.1705C37.4065 22.1705 36.6584 21.9792 36.0334 21.5966C35.4122 21.214 34.933 20.6856 34.5959 20.0114C34.2625 19.3333 34.0959 18.553 34.0959 17.6705C34.0959 16.7841 34.2663 16.0019 34.6072 15.3239C34.9482 14.642 35.4292 14.1117 36.0504 13.733C36.6754 13.3504 37.4141 13.1591 38.2663 13.1591C38.9747 13.1591 39.6016 13.2898 40.147 13.5511C40.6963 13.8087 41.1338 14.1742 41.4595 14.6477C41.7853 15.1174 41.9709 15.6667 42.0163 16.2955H40.0504C39.9709 15.875 39.7815 15.5246 39.4822 15.2443C39.1868 14.9602 38.791 14.8182 38.2947 14.8182C37.8743 14.8182 37.505 14.9318 37.1868 15.1591C36.8686 15.3826 36.6205 15.7045 36.4425 16.125C36.2682 16.5455 36.1811 17.0492 36.1811 17.6364C36.1811 18.2311 36.2682 18.7424 36.4425 19.1705C36.6167 19.5947 36.861 19.9223 37.1754 20.1534C37.4936 20.3807 37.8667 20.4943 38.2947 20.4943C38.5978 20.4943 38.8686 20.4375 39.1072 20.3239C39.3497 20.2064 39.5523 20.0379 39.7152 19.8182C39.8781 19.5985 39.9898 19.3314 40.0504 19.017H42.0163C41.9671 19.6345 41.7853 20.1818 41.4709 20.6591C41.1565 21.1326 40.7285 21.5038 40.1868 21.7727C39.6451 22.0379 39.0088 22.1705 38.2777 22.1705ZM43.7053 22V13.2727H45.7621V22H43.7053ZM44.7393 12.0341C44.4136 12.0341 44.1333 11.9261 43.8984 11.7102C43.6636 11.4905 43.5462 11.2273 43.5462 10.9205C43.5462 10.6098 43.6636 10.3466 43.8984 10.1307C44.1333 9.91098 44.4136 9.80114 44.7393 9.80114C45.0689 9.80114 45.3492 9.91098 45.5803 10.1307C45.8151 10.3466 45.9325 10.6098 45.9325 10.9205C45.9325 11.2273 45.8151 11.4905 45.5803 11.7102C45.3492 11.9261 45.0689 12.0341 44.7393 12.0341ZM49.9339 16.8864V22H47.8771V13.2727H49.843V14.7557H49.9453C50.1461 14.267 50.4661 13.8788 50.9055 13.5909C51.3487 13.303 51.8961 13.1591 52.5476 13.1591C53.1499 13.1591 53.6745 13.2879 54.1214 13.5455C54.5722 13.803 54.9207 14.1761 55.1669 14.6648C55.4169 15.1534 55.54 15.7462 55.5362 16.4432V22H53.4794V16.7614C53.4794 16.178 53.3279 15.7216 53.0249 15.392C52.7256 15.0625 52.3108 14.8977 51.7805 14.8977C51.4207 14.8977 51.1006 14.9773 50.8203 15.1364C50.5438 15.2917 50.326 15.517 50.1669 15.8125C50.0116 16.108 49.9339 16.4659 49.9339 16.8864ZM61.4226 25.4545C60.6839 25.4545 60.0495 25.3542 59.5192 25.1534C58.9889 24.9564 58.5627 24.6913 58.2408 24.358C57.9188 24.0246 57.6953 23.6553 57.5703 23.25L59.4226 22.8011C59.5059 22.9716 59.6271 23.1402 59.7862 23.3068C59.9453 23.4773 60.1593 23.6174 60.4283 23.7273C60.701 23.8409 61.0438 23.8977 61.4567 23.8977C62.04 23.8977 62.523 23.7557 62.9055 23.4716C63.2881 23.1913 63.4794 22.7292 63.4794 22.0852V20.4318H63.3771C63.2711 20.6439 63.1158 20.8617 62.9112 21.0852C62.7105 21.3087 62.4434 21.4962 62.1101 21.6477C61.7805 21.7992 61.3658 21.875 60.8658 21.875C60.1953 21.875 59.5874 21.7178 59.0419 21.4034C58.5002 21.0852 58.0684 20.6117 57.7464 19.983C57.4283 19.3504 57.2692 18.5587 57.2692 17.608C57.2692 16.6496 57.4283 15.8409 57.7464 15.1818C58.0684 14.5189 58.5021 14.017 59.0476 13.6761C59.593 13.3314 60.201 13.1591 60.8714 13.1591C61.3828 13.1591 61.8033 13.2462 62.1328 13.4205C62.4661 13.5909 62.7313 13.7973 62.9283 14.0398C63.1252 14.2784 63.2749 14.5038 63.3771 14.7159H63.4908V13.2727H65.5192V22.142C65.5192 22.8883 65.3411 23.5057 64.9851 23.9943C64.629 24.483 64.1423 24.8485 63.5249 25.0909C62.9074 25.3333 62.2067 25.4545 61.4226 25.4545ZM61.4396 20.2614C61.8752 20.2614 62.2464 20.1553 62.5533 19.9432C62.8601 19.7311 63.093 19.4261 63.2521 19.0284C63.4112 18.6307 63.4908 18.1534 63.4908 17.5966C63.4908 17.0473 63.4112 16.5663 63.2521 16.1534C63.0968 15.7405 62.8658 15.4205 62.5589 15.1932C62.2559 14.9621 61.8828 14.8466 61.4396 14.8466C60.9813 14.8466 60.5987 14.9659 60.2919 15.2045C59.9851 15.4432 59.754 15.7708 59.5987 16.1875C59.4434 16.6004 59.3658 17.0701 59.3658 17.5966C59.3658 18.1307 59.4434 18.5985 59.5987 19C59.7578 19.3977 59.9908 19.7083 60.2976 19.9318C60.6082 20.1515 60.9889 20.2614 61.4396 20.2614ZM71.5959 25.2727V13.2727H73.6186V14.7159H73.7379C73.844 14.5038 73.9936 14.2784 74.1868 14.0398C74.38 13.7973 74.6413 13.5909 74.9709 13.4205C75.3004 13.2462 75.7209 13.1591 76.2322 13.1591C76.9065 13.1591 77.5144 13.3314 78.0561 13.6761C78.6016 14.017 79.0334 14.5227 79.3516 15.1932C79.6735 15.8598 79.8345 16.678 79.8345 17.6477C79.8345 18.6061 79.6773 19.4205 79.3629 20.0909C79.0485 20.7614 78.6205 21.2727 78.0788 21.625C77.5372 21.9773 76.9235 22.1534 76.2379 22.1534C75.7379 22.1534 75.3232 22.0701 74.9936 21.9034C74.6641 21.7367 74.3989 21.536 74.1982 21.3011C74.0012 21.0625 73.8478 20.8371 73.7379 20.625H73.6527V25.2727H71.5959ZM73.6129 17.6364C73.6129 18.2008 73.6925 18.6951 73.8516 19.1193C74.0144 19.5436 74.2474 19.875 74.5504 20.1136C74.8572 20.3485 75.2285 20.4659 75.6641 20.4659C76.1186 20.4659 76.4993 20.3447 76.8061 20.1023C77.1129 19.8561 77.344 19.5208 77.4993 19.0966C77.6584 18.6686 77.7379 18.1818 77.7379 17.6364C77.7379 17.0947 77.6603 16.6136 77.505 16.1932C77.3497 15.7727 77.1186 15.4432 76.8118 15.2045C76.505 14.9659 76.1224 14.8466 75.6641 14.8466C75.2247 14.8466 74.8516 14.9621 74.5447 15.1932C74.2379 15.4242 74.005 15.7481 73.8459 16.1648C73.6906 16.5814 73.6129 17.072 73.6129 17.6364ZM83.6527 10.3636V22H81.5959V10.3636H83.6527ZM88.2791 22.1761C87.7261 22.1761 87.228 22.0777 86.7848 21.8807C86.3454 21.6799 85.9969 21.3845 85.7393 20.9943C85.4856 20.6042 85.3587 20.1231 85.3587 19.5511C85.3587 19.0587 85.4496 18.6515 85.6314 18.3295C85.8132 18.0076 86.0613 17.75 86.3757 17.5568C86.6901 17.3636 87.0443 17.2178 87.4382 17.1193C87.8359 17.017 88.2469 16.9432 88.6712 16.8977C89.1825 16.8447 89.5973 16.7973 89.9155 16.7557C90.2337 16.7102 90.4647 16.642 90.6087 16.5511C90.7564 16.4564 90.8303 16.3106 90.8303 16.1136V16.0795C90.8303 15.6515 90.7034 15.3201 90.4496 15.0852C90.1958 14.8504 89.8303 14.733 89.353 14.733C88.8492 14.733 88.4496 14.8428 88.1541 15.0625C87.8625 15.2822 87.6655 15.5417 87.5632 15.8409L85.6428 15.5682C85.7943 15.0379 86.0443 14.5947 86.3928 14.2386C86.7412 13.8788 87.1674 13.6098 87.6712 13.4318C88.175 13.25 88.7318 13.1591 89.3416 13.1591C89.7621 13.1591 90.1806 13.2083 90.5973 13.3068C91.014 13.4053 91.3946 13.5682 91.7393 13.7955C92.084 14.0189 92.3606 14.3239 92.5689 14.7102C92.781 15.0966 92.8871 15.5795 92.8871 16.1591V22H90.9098V20.8011H90.8416C90.7166 21.0436 90.5405 21.2708 90.3132 21.483C90.0897 21.6913 89.8075 21.8598 89.4666 21.9886C89.1295 22.1136 88.7337 22.1761 88.2791 22.1761ZM88.8132 20.6648C89.2261 20.6648 89.584 20.5833 89.8871 20.4205C90.1901 20.2538 90.4231 20.0341 90.5859 19.7614C90.7526 19.4886 90.8359 19.1913 90.8359 18.8693V17.8409C90.7715 17.8939 90.6617 17.9432 90.5064 17.9886C90.3549 18.0341 90.1844 18.0739 89.995 18.108C89.8056 18.142 89.6181 18.1723 89.4325 18.1989C89.2469 18.2254 89.0859 18.2481 88.9496 18.267C88.6428 18.3087 88.3681 18.3769 88.1257 18.4716C87.8833 18.5663 87.692 18.6989 87.5518 18.8693C87.4117 19.036 87.3416 19.2519 87.3416 19.517C87.3416 19.8958 87.4799 20.1818 87.7564 20.375C88.0329 20.5682 88.3852 20.6648 88.8132 20.6648ZM97.0121 16.8864V22H94.9553V13.2727H96.9212V14.7557H97.0234C97.2242 14.267 97.5443 13.8788 97.9837 13.5909C98.4268 13.303 98.9742 13.1591 99.6257 13.1591C100.228 13.1591 100.753 13.2879 101.2 13.5455C101.65 13.803 101.999 14.1761 102.245 14.6648C102.495 15.1534 102.618 15.7462 102.614 16.4432V22H100.558V16.7614C100.558 16.178 100.406 15.7216 100.103 15.392C99.8037 15.0625 99.389 14.8977 98.8587 14.8977C98.4988 14.8977 98.1787 14.9773 97.8984 15.1364C97.6219 15.2917 97.4041 15.517 97.245 15.8125C97.0897 16.108 97.0121 16.4659 97.0121 16.8864ZM111.603 15.5795L109.728 15.7841C109.675 15.5947 109.582 15.4167 109.45 15.25C109.321 15.0833 109.147 14.9489 108.927 14.8466C108.707 14.7443 108.438 14.6932 108.12 14.6932C107.692 14.6932 107.332 14.786 107.04 14.9716C106.753 15.1572 106.611 15.3977 106.614 15.6932C106.611 15.947 106.703 16.1534 106.893 16.3125C107.086 16.4716 107.404 16.6023 107.847 16.7045L109.336 17.0227C110.162 17.2008 110.775 17.483 111.177 17.8693C111.582 18.2557 111.787 18.7614 111.79 19.3864C111.787 19.9356 111.626 20.4205 111.308 20.8409C110.993 21.2576 110.556 21.5833 109.995 21.8182C109.434 22.053 108.79 22.1705 108.063 22.1705C106.995 22.1705 106.135 21.947 105.484 21.5C104.832 21.0492 104.444 20.4223 104.319 19.6193L106.325 19.4261C106.415 19.8201 106.609 20.1174 106.904 20.3182C107.2 20.5189 107.584 20.6193 108.058 20.6193C108.546 20.6193 108.938 20.5189 109.234 20.3182C109.533 20.1174 109.683 19.8693 109.683 19.5739C109.683 19.3239 109.586 19.1174 109.393 18.9545C109.203 18.7917 108.908 18.6667 108.506 18.5795L107.018 18.267C106.181 18.0928 105.561 17.7992 105.16 17.3864C104.758 16.9697 104.559 16.4432 104.563 15.8068C104.559 15.2689 104.705 14.803 105.001 14.4091C105.3 14.0114 105.715 13.7045 106.245 13.4886C106.779 13.2689 107.395 13.1591 108.092 13.1591C109.114 13.1591 109.919 13.3769 110.506 13.8125C111.097 14.2481 111.463 14.8371 111.603 15.5795ZM116.398 23.12H132.398V7.12H116.398V23.12Z" fill="#1463FF"/>
</svg>
